<svg width="300" height="300" viewBox="40 260 550 550" fill="none" xmlns="http://www.w3.org/2000/svg">
<path d="M228.812 670.032L222.984 673.392L222.988 666.664C222.988 666.664 222.907 670.104 224.46 670.964C225.98 671.807 228.812 670.032 228.812 670.032Z" fill="#8E3315"/>
<path d="M79.2489 663.093C112.098 725.212 168.279 771.728 235.435 792.424C302.59 813.119 375.218 806.291 437.342 773.44C499.465 740.589 545.995 684.406 566.695 617.252C587.395 550.099 580.429 477.472 547.58 415.353C577.201 508.707 474.075 541.504 474.075 541.504L349.26 606.737L219.542 674.393C219.542 674.393 131.133 731.307 79.2489 663.093Z" fill="#473ADE"/>
<path d="M78.7821 663.549C111.631 725.668 167.813 772.193 234.968 792.889C302.123 813.584 374.751 806.755 436.875 773.904C498.998 741.053 545.528 684.871 566.228 617.717C586.928 550.563 580.103 477.939 547.255 415.819C576.876 509.174 473.608 541.969 473.608 541.969L348.793 607.202L219.075 674.858C219.075 674.858 130.666 731.763 78.7821 663.549Z" fill="url(#paint0_linear_827_2)"/>
<path d="M470.751 535.03L480.387 539.714L470.216 543.795C470.216 543.795 474.58 541.734 475.101 539.714C475.611 537.735 470.751 535.03 470.751 535.03Z" fill="#251E73"/>
<path d="M549.183 660.322C581.26 597.801 587.186 525.097 565.656 458.205C544.127 391.312 496.905 335.71 434.38 303.63C371.855 271.55 299.148 265.621 232.254 287.146C165.36 308.671 109.758 355.888 77.6804 418.408C137.204 340.631 223.265 406.459 223.265 406.459L348.256 471.352L478.043 538.875C478.043 538.875 575.345 578.709 549.183 660.322Z" fill="#D71D6A"/>
<path d="M548.548 660.063C580.53 597.729 586.438 525.242 564.973 458.548C543.507 391.855 496.426 336.418 434.087 304.434C371.749 272.45 299.258 266.538 232.563 287.999C165.868 309.46 110.432 356.536 78.4501 418.87C137.797 341.324 223.601 406.956 223.601 406.956L348.22 471.656L477.621 538.979C477.621 538.979 574.633 578.693 548.548 660.063Z" fill="url(#paint1_linear_827_2)"/>
<path d="M223.024 412.737L222.915 405.693L229.07 409.121C229.07 409.121 225.963 407.296 224.386 408.279C222.841 409.242 223.024 412.737 223.024 412.737Z" fill="#741039"/>
<path d="M313.452 274.351C243.183 274.351 175.791 302.267 126.103 351.959C76.4147 401.65 48.5002 469.046 48.5002 539.321C48.5002 609.595 76.4147 676.991 126.103 726.683C175.791 776.374 243.091 804.156 313.361 804.156C223.175 789.015 223.267 672.306 223.267 672.306L223.266 539.321L223.266 403.983C223.266 403.983 223.267 290.493 313.452 274.351Z" fill="#FF5B25"/>
<path d="M313.452 273.734C243.183 273.734 175.791 301.65 126.103 351.341C76.4147 401.033 48.5002 468.429 48.5002 538.704C48.5002 608.978 76.4147 676.374 126.103 726.066C175.791 775.757 243.091 804.174 313.361 804.174C223.175 775.36 223.266 672.453 223.266 672.453L223.266 539.031V406.46C223.266 406.46 219.986 290.904 313.452 273.734Z" fill="url(#paint2_linear_827_2)"/>
<path d="M313.452 273.734C243.183 273.734 175.791 301.65 126.103 351.341C76.4147 401.033 48.5002 468.429 48.5002 538.704C48.5002 608.978 76.4147 676.374 126.103 726.066C175.791 775.757 243.091 804.174 313.361 804.174C223.175 775.36 223.266 672.453 223.266 672.453L223.266 539.031V406.46C223.266 406.46 219.986 290.904 313.452 273.734Z" fill="url(#paint3_linear_827_2)" fill-opacity="0.3"/>
<path d="M313.361 804.158C223.872 763.397 223.373 672.412 223.373 672.412C223.373 672.412 112.456 734.982 75.1152 654.955C75.1152 654.955 138.315 804.689 313.361 804.158Z" fill="#473ADE"/>
<defs>
<filter id="filter0_d_827_2" x="688.602" y="447.898" width="1187.65" height="192.172" filterUnits="userSpaceOnUse" color-interpolation-filters="sRGB">
<feFlood flood-opacity="0" result="BackgroundImageFix"/>
<feColorMatrix in="SourceAlpha" type="matrix" values="0 0 0 0 0 0 0 0 0 0 0 0 0 0 0 0 0 0 127 0" result="hardAlpha"/>
<feOffset dy="4"/>
<feGaussianBlur stdDeviation="2"/>
<feColorMatrix type="matrix" values="0 0 0 0 0 0 0 0 0 0 0 0 0 0 0 0 0 0 0.25 0"/>
<feBlend mode="normal" in2="BackgroundImageFix" result="effect1_dropShadow_827_2"/>
<feBlend mode="normal" in="SourceGraphic" in2="effect1_dropShadow_827_2" result="shape"/>
</filter>
<linearGradient id="paint0_linear_827_2" x1="547.275" y1="509.11" x2="161.761" y2="889.742" gradientUnits="userSpaceOnUse">
<stop stop-opacity="0.6"/>
<stop offset="0.655513" stop-opacity="0"/>
</linearGradient>
<linearGradient id="paint1_linear_827_2" x1="154.659" y1="365.545" x2="685.936" y2="463.015" gradientUnits="userSpaceOnUse">
<stop stop-opacity="0.6"/>
<stop offset="0.645833" stop-opacity="0"/>
</linearGradient>
<linearGradient id="paint2_linear_827_2" x1="190.39" y1="770.85" x2="32.7717" y2="285.371" gradientUnits="userSpaceOnUse">
<stop stop-opacity="0.6"/>
<stop offset="0.675464" stop-opacity="0"/>
</linearGradient>
<linearGradient id="paint3_linear_827_2" x1="190.39" y1="770.85" x2="32.7717" y2="285.371" gradientUnits="userSpaceOnUse">
<stop stop-opacity="0.6"/>
<stop offset="0.675464" stop-opacity="0"/>
</linearGradient>
</defs>
</svg>
