<?xml version="1.0" standalone="no"?>
<!DOCTYPE svg PUBLIC "-//W3C//DTD SVG 20010904//EN"
 "http://www.w3.org/TR/2001/REC-SVG-20010904/DTD/svg10.dtd">
<svg version="1.0" xmlns="http://www.w3.org/2000/svg"
 width="856.000000pt" height="856.000000pt" viewBox="0 0 856.000000 856.000000"
 preserveAspectRatio="xMidYMid meet">
<metadata>
Created by potrace 1.11, written by Peter Selinger 2001-2013
</metadata>
<g transform="translate(0.000000,856.000000) scale(0.100000,-0.100000)"
fill="#000000" stroke="none">
<path d="M8205 6362 c-1 -2 -34 -5 -71 -8 -83 -5 -141 -10 -211 -18 -29 -3
-77 -8 -105 -11 -29 -3 -64 -8 -78 -10 -14 -2 -50 -6 -80 -10 -30 -4 -66 -8
-80 -10 -57 -9 -197 -27 -225 -30 -16 -2 -49 -6 -72 -9 -128 -17 -317 -24
-415 -16 -28 2 -47 -4 -79 -26 -63 -44 -149 -94 -149 -86 0 4 -4 2 -8 -3 -4
-6 -27 -20 -52 -31 -25 -12 -60 -29 -79 -38 -19 -9 -39 -16 -45 -16 -6 0 -22
-6 -36 -13 -14 -7 -52 -24 -85 -37 -75 -30 -265 -127 -286 -146 -8 -8 -20 -14
-25 -14 -5 0 -37 -25 -71 -56 -75 -67 -96 -115 -68 -157 19 -30 32 -35 95 -40
62 -6 173 15 316 59 65 19 126 37 134 39 8 2 31 9 50 14 19 6 45 11 57 11 19
0 21 -4 17 -37 -7 -53 -63 -245 -101 -343 -8 -20 -9 -21 -18 -55 -4 -16 -11
-34 -15 -40 -4 -5 -15 -35 -24 -65 -17 -52 -43 -116 -69 -169 -35 -71 -97
-107 -207 -118 -70 -7 -196 -33 -235 -48 -145 -55 -214 -124 -211 -210 5 -111
100 -156 279 -131 46 6 101 13 165 21 17 2 32 1 32 -2 0 -11 -110 -379 -202
-678 -12 -38 -23 -72 -23 -75 -1 -3 -9 -32 -19 -65 -10 -33 -20 -67 -22 -75
-2 -8 -10 -40 -19 -70 -9 -30 -17 -62 -19 -70 -3 -8 -18 -69 -35 -135 -61
-243 -70 -345 -35 -391 36 -48 67 -60 126 -47 29 6 67 17 83 24 17 7 32 13 35
14 3 1 19 7 35 14 51 22 109 39 143 44 56 9 73 33 132 184 17 43 35 87 40 98
15 34 115 337 200 605 45 140 84 262 87 270 4 8 7 18 7 22 1 3 4 10 9 14 4 4
7 16 7 26 0 10 4 26 9 36 6 9 22 46 38 82 30 71 79 145 103 154 58 23 90 28
210 31 166 5 307 17 348 29 9 3 31 8 48 11 17 2 44 12 60 20 16 8 34 15 39 15
10 0 87 67 84 72 -1 2 1 13 5 26 15 47 -27 102 -111 145 -33 18 -154 52 -213
61 -19 3 -46 8 -60 10 -14 3 -52 8 -85 11 -60 7 -70 9 -135 21 -47 8 -102 32
-97 41 5 9 47 140 52 163 2 8 22 80 45 160 22 80 45 161 50 180 71 270 83 303
117 326 27 18 142 60 192 69 9 2 16 4 16 5 0 1 7 3 15 5 145 29 181 36 215 41
22 3 51 7 64 9 62 11 257 32 356 40 73 6 369 18 443 19 l72 0 0 187 0 188
-176 -2 c-97 -1 -177 -3 -179 -5z"/>
<path d="M5108 6274 c-2 -1 -28 -5 -58 -7 -75 -8 -101 -14 -203 -47 -177 -60
-443 -212 -612 -352 -5 -5 -21 -18 -35 -29 -155 -127 -349 -321 -485 -484 -28
-33 -53 -62 -56 -65 -22 -20 -279 -383 -279 -395 0 -5 -156 -235 -179 -264
l-18 -24 -38 23 c-32 20 -52 23 -126 24 -73 1 -89 4 -89 16 0 17 83 319 99
363 6 15 13 38 15 50 3 12 16 67 30 122 13 55 27 123 31 150 4 28 10 59 12 70
10 41 12 324 3 356 -5 19 -12 48 -15 64 -3 17 -8 41 -11 54 -11 54 -70 156
-118 205 -54 56 -121 96 -196 116 -58 16 -192 16 -250 0 -25 -7 -54 -14 -66
-16 -51 -9 -230 -92 -262 -121 -7 -7 -18 -13 -23 -13 -5 0 -15 -5 -22 -10 -7
-6 -50 -38 -97 -73 -103 -75 -308 -278 -412 -407 -86 -108 -228 -312 -228
-329 0 -6 -4 -11 -9 -11 -5 0 -12 -8 -15 -17 -3 -10 -12 -27 -19 -38 -27 -44
-88 -157 -152 -280 -70 -134 -106 -192 -146 -235 -38 -40 -76 -71 -90 -74 -8
-2 -21 -6 -29 -9 -35 -15 -100 -36 -100 -32 0 8 -115 -36 -156 -60 -141 -83
-133 -213 16 -260 3 -1 25 -5 50 -9 25 -4 54 -9 65 -11 11 -2 28 -4 39 -4 16
-1 18 -7 13 -44 -3 -24 -12 -57 -18 -73 -7 -16 -13 -33 -14 -39 -2 -8 -75
-191 -120 -300 -5 -11 -9 -22 -9 -25 -1 -3 -14 -36 -28 -75 -30 -79 -40 -106
-44 -120 -38 -128 -55 -202 -58 -255 -7 -113 35 -172 123 -176 108 -4 173 61
278 276 46 94 121 268 127 295 1 6 12 32 24 59 12 27 22 51 22 55 0 3 13 39
30 79 123 302 173 346 424 368 179 15 383 27 489 28 84 1 101 -2 112 -17 16
-22 11 -79 -16 -177 -12 -41 -23 -84 -24 -95 -2 -11 -8 -33 -14 -48 -6 -15
-13 -41 -16 -58 -3 -16 -12 -55 -21 -87 -8 -31 -17 -68 -20 -82 -3 -14 -7 -33
-10 -42 -5 -19 -8 -29 -30 -148 -23 -121 -23 -124 -28 -240 -7 -168 21 -265
97 -341 44 -44 134 -90 184 -94 57 -4 153 48 153 85 0 5 4 10 9 10 9 0 55 110
66 160 17 75 28 134 40 220 18 122 23 157 29 185 2 11 7 40 11 65 13 77 16 93
32 170 8 41 17 84 19 95 7 49 64 226 92 285 50 108 106 157 188 166 27 3 62 7
77 9 16 2 30 -2 33 -9 3 -7 -15 -75 -39 -152 -25 -76 -48 -157 -51 -179 -3
-22 -8 -53 -11 -70 -18 -88 -10 -239 18 -375 32 -151 152 -327 287 -420 106
-72 199 -110 333 -135 117 -21 328 -8 437 27 19 7 41 13 47 14 53 9 290 124
352 171 78 58 184 145 222 180 56 53 89 77 89 65 0 -6 -7 -46 -15 -90 -34
-180 -26 -285 24 -311 34 -19 104 -24 151 -11 79 21 141 104 211 280 8 19 14
37 15 40 0 3 4 14 8 25 23 61 28 75 27 80 -1 3 6 19 14 35 8 16 15 32 15 35
-1 3 6 31 16 63 10 31 18 62 20 67 1 6 9 33 17 60 9 28 34 111 57 185 98 320
199 596 229 620 6 5 7 9 21 65 16 67 -14 128 -81 165 -75 42 -243 36 -439 -15
-36 -10 -69 -18 -75 -19 -147 -32 -455 -164 -570 -246 -59 -41 -63 -45 -97
-90 -44 -60 -29 -147 33 -191 37 -26 136 -32 216 -12 32 7 65 15 73 17 8 2 70
25 136 50 67 25 126 46 132 46 15 0 -74 -142 -157 -250 -145 -190 -437 -451
-626 -559 -70 -40 -173 -87 -213 -96 -69 -17 -92 -20 -127 -20 -113 2 -184 73
-211 209 -9 43 -9 180 -1 241 4 28 9 68 12 90 10 75 76 311 115 410 51 132 72
180 129 300 36 77 68 142 71 145 3 3 18 30 34 60 41 76 158 264 168 268 4 2 8
8 8 13 0 11 148 210 207 279 59 69 252 261 308 307 199 161 450 285 499 244
16 -14 27 -71 32 -166 10 -212 24 -279 71 -343 61 -81 159 -77 226 11 91 121
126 366 82 582 -11 55 -67 153 -109 192 -46 44 -109 77 -176 92 -45 11 -127
20 -132 15z m-2465 -440 c-1 -10 -4 -39 -8 -64 -3 -25 -8 -56 -9 -70 -2 -14
-6 -34 -9 -45 -3 -11 -8 -36 -11 -55 -3 -19 -19 -96 -37 -170 -17 -74 -33
-146 -36 -160 -3 -14 -7 -32 -10 -40 -3 -8 -7 -19 -8 -25 -2 -5 -10 -39 -19
-75 -9 -36 -18 -74 -21 -85 -24 -100 -63 -223 -91 -282 -45 -94 -72 -108 -244
-128 -25 -2 -61 -7 -80 -10 -19 -2 -51 -7 -70 -9 -149 -21 -362 -27 -412 -13
-41 11 -37 52 17 158 38 78 147 255 182 299 7 8 46 59 87 113 41 54 100 128
133 164 59 68 302 313 342 346 175 141 310 208 304 151z"/>
</g>
</svg>
